#N canvas 62 131 574 271 10;
#X obj 159 39 adc~;
#X obj 158 90 ave~;
#X obj 202 116 bng 15 250 50 0 empty empty empty 17 7 0 10 -262144
-1 -1;
#X text 225 113 click to start/stop;
#X obj 79 37 loadbang;
#X msg 79 119 \; pd dsp 1;
#X obj 84 73 delay 100;
#X obj 157 137 sendFFT3;
#X connect 0 0 1 0;
#X connect 0 1 1 1;
#X connect 1 0 7 0;
#X connect 2 0 7 1;
#X connect 4 0 6 0;
#X connect 6 0 5 0;
#X connect 6 0 2 0;
