#N canvas 730 428 284 246 10;
#X obj 36 35 adc~;
#X obj 35 86 ave~;
#X obj 34 134 sendFFT;
#X obj 73 115 bng 15 250 50 0 empty empty empty 17 7 0 10 -262144 -1
-1;
#X text 96 112 click to start/stop;
#X obj -44 33 loadbang;
#X msg -44 63 \; pd dsp 1;
#X connect 0 0 1 0;
#X connect 0 1 1 1;
#X connect 1 0 2 0;
#X connect 3 0 2 1;
#X connect 5 0 3 0;
#X connect 5 0 6 0;
