#N canvas 3 54 1351 686 10;
#X obj 16 101 rfft~;
#X obj 17 130 *~;
#X obj 44 130 *~;
#X obj 17 168 +~;
#X obj 16 196 tabsend~ magnitude;
#X obj 13 43 table magnitude;
#X obj 188 85 tabdump magnitude;
#X obj 188 57 metro 46.4399;
#X obj 188 34 tgl 15 0 empty empty empty 17 7 0 10 -262144 -1 -1 0
1;
#X obj 16 76 inlet~;
#X obj 378 17 inlet;
#X text 419 14 bang to initialize;
#X text 166 137 discard;
#X obj 222 299 sendOSC;
#X obj 222 235 list trim;
#X obj 222 216 list prepend send;
#X msg 247 276 connect localhost 8666;
#X obj 222 197 list prepend /fft;
#X obj 14 16 block~ 1024;
#X obj 188 116 list split 5;
#X obj 222 160 list split 24;
#X connect 0 0 1 0;
#X connect 0 0 1 1;
#X connect 0 1 2 0;
#X connect 0 1 2 1;
#X connect 1 0 3 0;
#X connect 2 0 3 1;
#X connect 3 0 4 0;
#X connect 6 0 19 0;
#X connect 7 0 6 0;
#X connect 8 0 7 0;
#X connect 9 0 0 0;
#X connect 10 0 8 0;
#X connect 10 0 16 0;
#X connect 14 0 13 0;
#X connect 15 0 14 0;
#X connect 16 0 13 0;
#X connect 17 0 15 0;
#X connect 19 1 20 0;
#X connect 20 0 17 0;
