#N canvas 3 54 1351 686 10;
#X obj 16 101 rfft~;
#X obj 17 130 *~;
#X obj 44 130 *~;
#X obj 17 168 +~;
#X obj 16 196 tabsend~ magnitude;
#X obj 13 43 table magnitude;
#X obj 14 16 block~ 2048;
#X obj 588 85 tabdump magnitude;
#X obj 588 57 metro 46.4399;
#X obj 588 34 tgl 15 0 empty empty empty 17 7 0 10 -262144 -1 -1 1
1;
#X obj 16 76 inlet~;
#X obj 588 12 inlet;
#X text 629 9 bang to initialize;
#X obj 622 190 sum;
#X obj 588 116 list split 6;
#X obj 622 140 list split 2;
#X obj 656 163 list split 3;
#X obj 690 186 list split 4;
#X obj 724 210 list split 6;
#X obj 758 233 list split 8;
#X obj 792 256 list split 12;
#X obj 829 280 list split 17;
#X obj 866 303 list split 24;
#X text 566 137 discard;
#X obj 656 211 sum;
#X obj 690 230 sum;
#X obj 724 251 sum;
#X obj 758 270 sum;
#X obj 792 291 sum;
#X obj 829 312 sum;
#X obj 866 333 sum;
#X obj 455 231 spigot;
#X obj 488 211 > 0.5;
#X obj 455 189 t f f;
#X obj 505 281 spigot;
#X obj 538 261 > 0.5;
#X obj 505 239 t f f;
#X obj 555 331 spigot;
#X obj 588 311 > 0.5;
#X obj 555 289 t f f;
#X obj 605 381 spigot;
#X obj 638 361 > 0.5;
#X obj 605 339 t f f;
#X obj 655 431 spigot;
#X obj 688 411 > 0.5;
#X obj 655 389 t f f;
#X obj 705 481 spigot;
#X obj 738 461 > 0.5;
#X obj 705 439 t f f;
#X obj 755 531 spigot;
#X obj 788 511 > 0.5;
#X obj 755 489 t f f;
#X obj 805 581 spigot;
#X obj 838 561 > 0.5;
#X obj 805 539 t f f;
#X floatatom 355 282 10 0 0 0 - - -;
#X floatatom 1043 127 5 0 0 0 - - -;
#N canvas 596 299 450 300 sendSpoke 0;
#X obj -32 239 sendOSC;
#X obj -32 175 list trim;
#X obj -32 156 list prepend send;
#X obj -32 137 list prepend /launch;
#X obj -32 108 pack f f;
#X obj -32 60 t b f;
#X obj -32 85 f;
#X obj 38 51 inlet;
#X obj -32 33 inlet;
#X msg -7 216 connect localhost 8666;
#X connect 1 0 0 0;
#X connect 2 0 1 0;
#X connect 3 0 2 0;
#X connect 4 0 3 0;
#X connect 5 0 6 0;
#X connect 5 1 4 1;
#X connect 6 0 4 0;
#X connect 7 0 6 1;
#X connect 7 0 9 0;
#X connect 8 0 5 0;
#X connect 9 0 0 0;
#X restore 355 303 pd sendSpoke;
#X msg 424 281 0;
#X floatatom 405 332 10 0 0 0 - - -;
#N canvas 596 299 450 300 sendSpoke 0;
#X obj -32 239 sendOSC;
#X obj -32 175 list trim;
#X obj -32 156 list prepend send;
#X obj -32 137 list prepend /launch;
#X obj -32 108 pack f f;
#X obj -32 60 t b f;
#X obj -32 85 f;
#X obj 38 51 inlet;
#X obj -32 33 inlet;
#X msg -7 216 connect localhost 8666;
#X connect 1 0 0 0;
#X connect 2 0 1 0;
#X connect 3 0 2 0;
#X connect 4 0 3 0;
#X connect 5 0 6 0;
#X connect 5 1 4 1;
#X connect 6 0 4 0;
#X connect 7 0 6 1;
#X connect 7 0 9 0;
#X connect 8 0 5 0;
#X connect 9 0 0 0;
#X restore 405 353 pd sendSpoke;
#X msg 474 331 1;
#X floatatom 435 382 10 0 0 0 - - -;
#N canvas 596 299 450 300 sendSpoke 0;
#X obj -32 239 sendOSC;
#X obj -32 175 list trim;
#X obj -32 156 list prepend send;
#X obj -32 137 list prepend /launch;
#X obj -32 108 pack f f;
#X obj -32 60 t b f;
#X obj -32 85 f;
#X obj 38 51 inlet;
#X obj -32 33 inlet;
#X msg -7 216 connect localhost 8666;
#X connect 1 0 0 0;
#X connect 2 0 1 0;
#X connect 3 0 2 0;
#X connect 4 0 3 0;
#X connect 5 0 6 0;
#X connect 5 1 4 1;
#X connect 6 0 4 0;
#X connect 7 0 6 1;
#X connect 7 0 9 0;
#X connect 8 0 5 0;
#X connect 9 0 0 0;
#X restore 435 403 pd sendSpoke;
#X floatatom 485 432 10 0 0 0 - - -;
#N canvas 596 299 450 300 sendSpoke 0;
#X obj -32 239 sendOSC;
#X obj -32 175 list trim;
#X obj -32 156 list prepend send;
#X obj -32 137 list prepend /launch;
#X obj -32 108 pack f f;
#X obj -32 60 t b f;
#X obj -32 85 f;
#X obj 38 51 inlet;
#X obj -32 33 inlet;
#X msg -7 216 connect localhost 8666;
#X connect 1 0 0 0;
#X connect 2 0 1 0;
#X connect 3 0 2 0;
#X connect 4 0 3 0;
#X connect 5 0 6 0;
#X connect 5 1 4 1;
#X connect 6 0 4 0;
#X connect 7 0 6 1;
#X connect 7 0 9 0;
#X connect 8 0 5 0;
#X connect 9 0 0 0;
#X restore 485 453 pd sendSpoke;
#X floatatom 525 482 10 0 0 0 - - -;
#N canvas 596 299 450 300 sendSpoke 0;
#X obj -32 239 sendOSC;
#X obj -32 175 list trim;
#X obj -32 156 list prepend send;
#X obj -32 137 list prepend /launch;
#X obj -32 108 pack f f;
#X obj -32 60 t b f;
#X obj -32 85 f;
#X obj 38 51 inlet;
#X obj -32 33 inlet;
#X msg -7 216 connect localhost 8666;
#X connect 1 0 0 0;
#X connect 2 0 1 0;
#X connect 3 0 2 0;
#X connect 4 0 3 0;
#X connect 5 0 6 0;
#X connect 5 1 4 1;
#X connect 6 0 4 0;
#X connect 7 0 6 1;
#X connect 7 0 9 0;
#X connect 8 0 5 0;
#X connect 9 0 0 0;
#X restore 525 503 pd sendSpoke;
#X floatatom 575 532 10 0 0 0 - - -;
#N canvas 596 299 450 300 sendSpoke 0;
#X obj -32 239 sendOSC;
#X obj -32 175 list trim;
#X obj -32 156 list prepend send;
#X obj -32 137 list prepend /launch;
#X obj -32 108 pack f f;
#X obj -32 60 t b f;
#X obj -32 85 f;
#X obj 38 51 inlet;
#X obj -32 33 inlet;
#X msg -7 216 connect localhost 8666;
#X connect 1 0 0 0;
#X connect 2 0 1 0;
#X connect 3 0 2 0;
#X connect 4 0 3 0;
#X connect 5 0 6 0;
#X connect 5 1 4 1;
#X connect 6 0 4 0;
#X connect 7 0 6 1;
#X connect 7 0 9 0;
#X connect 8 0 5 0;
#X connect 9 0 0 0;
#X restore 575 553 pd sendSpoke;
#X floatatom 625 582 10 0 0 0 - - -;
#N canvas 596 299 450 300 sendSpoke 0;
#X obj -32 239 sendOSC;
#X obj -32 175 list trim;
#X obj -32 156 list prepend send;
#X obj -32 137 list prepend /launch;
#X obj -32 108 pack f f;
#X obj -32 60 t b f;
#X obj -32 85 f;
#X obj 38 51 inlet;
#X obj -32 33 inlet;
#X msg -7 216 connect localhost 8666;
#X connect 1 0 0 0;
#X connect 2 0 1 0;
#X connect 3 0 2 0;
#X connect 4 0 3 0;
#X connect 5 0 6 0;
#X connect 5 1 4 1;
#X connect 6 0 4 0;
#X connect 7 0 6 1;
#X connect 7 0 9 0;
#X connect 8 0 5 0;
#X connect 9 0 0 0;
#X restore 625 603 pd sendSpoke;
#X floatatom 675 632 10 0 0 0 - - -;
#N canvas 596 299 450 300 sendSpoke 0;
#X obj -32 239 sendOSC;
#X obj -32 175 list trim;
#X obj -32 156 list prepend send;
#X obj -32 137 list prepend /launch;
#X obj -32 108 pack f f;
#X obj -32 60 t b f;
#X obj -32 85 f;
#X obj 38 51 inlet;
#X obj -32 33 inlet;
#X msg -7 216 connect localhost 8666;
#X connect 1 0 0 0;
#X connect 2 0 1 0;
#X connect 3 0 2 0;
#X connect 4 0 3 0;
#X connect 5 0 6 0;
#X connect 5 1 4 1;
#X connect 6 0 4 0;
#X connect 7 0 6 1;
#X connect 7 0 9 0;
#X connect 8 0 5 0;
#X connect 9 0 0 0;
#X restore 675 653 pd sendSpoke;
#X msg 504 381 2;
#X msg 554 431 3;
#X msg 594 481 4;
#X msg 644 531 5;
#X msg 694 581 6;
#X msg 744 631 7;
#X obj 1043 66 loadbang;
#X msg 1048 100 1400;
#X connect 0 0 1 0;
#X connect 0 0 1 1;
#X connect 0 1 2 0;
#X connect 0 1 2 1;
#X connect 1 0 3 0;
#X connect 2 0 3 1;
#X connect 3 0 4 0;
#X connect 7 0 14 0;
#X connect 8 0 7 0;
#X connect 9 0 8 0;
#X connect 10 0 0 0;
#X connect 11 0 9 0;
#X connect 13 0 33 0;
#X connect 14 1 15 0;
#X connect 15 0 13 0;
#X connect 15 1 16 0;
#X connect 16 0 24 0;
#X connect 16 1 17 0;
#X connect 17 0 25 0;
#X connect 17 1 18 0;
#X connect 18 0 26 0;
#X connect 18 1 19 0;
#X connect 19 0 27 0;
#X connect 19 1 20 0;
#X connect 20 0 28 0;
#X connect 20 1 21 0;
#X connect 21 0 29 0;
#X connect 21 1 22 0;
#X connect 22 0 30 0;
#X connect 24 0 36 0;
#X connect 25 0 39 0;
#X connect 26 0 42 0;
#X connect 27 0 45 0;
#X connect 28 0 48 0;
#X connect 29 0 51 0;
#X connect 30 0 54 0;
#X connect 31 0 55 0;
#X connect 32 0 31 1;
#X connect 33 0 31 0;
#X connect 33 1 32 0;
#X connect 34 0 59 0;
#X connect 35 0 34 1;
#X connect 36 0 34 0;
#X connect 36 1 35 0;
#X connect 37 0 62 0;
#X connect 38 0 37 1;
#X connect 39 0 37 0;
#X connect 39 1 38 0;
#X connect 40 0 64 0;
#X connect 41 0 40 1;
#X connect 42 0 40 0;
#X connect 42 1 41 0;
#X connect 43 0 66 0;
#X connect 44 0 43 1;
#X connect 45 0 43 0;
#X connect 45 1 44 0;
#X connect 46 0 68 0;
#X connect 47 0 46 1;
#X connect 48 0 46 0;
#X connect 48 1 47 0;
#X connect 49 0 70 0;
#X connect 50 0 49 1;
#X connect 51 0 49 0;
#X connect 51 1 50 0;
#X connect 52 0 72 0;
#X connect 53 0 52 1;
#X connect 54 0 52 0;
#X connect 54 1 53 0;
#X connect 55 0 57 0;
#X connect 56 0 32 1;
#X connect 56 0 35 1;
#X connect 56 0 38 1;
#X connect 56 0 41 1;
#X connect 56 0 44 1;
#X connect 56 0 47 1;
#X connect 56 0 50 1;
#X connect 56 0 53 1;
#X connect 58 0 57 1;
#X connect 59 0 60 0;
#X connect 61 0 60 1;
#X connect 62 0 63 0;
#X connect 64 0 65 0;
#X connect 66 0 67 0;
#X connect 68 0 69 0;
#X connect 70 0 71 0;
#X connect 72 0 73 0;
#X connect 74 0 63 1;
#X connect 75 0 65 1;
#X connect 76 0 67 1;
#X connect 77 0 69 1;
#X connect 78 0 71 1;
#X connect 79 0 73 1;
#X connect 80 0 58 0;
#X connect 80 0 61 0;
#X connect 80 0 74 0;
#X connect 80 0 75 0;
#X connect 80 0 76 0;
#X connect 80 0 77 0;
#X connect 80 0 78 0;
#X connect 80 0 79 0;
#X connect 80 0 81 0;
#X connect 81 0 56 0;
