#N canvas 299 79 734 686 10;
#X obj 16 101 rfft~;
#X obj 17 130 *~;
#X obj 44 130 *~;
#X obj 17 168 +~;
#X obj 16 196 tabsend~ magnitude;
#X obj 13 43 table magnitude;
#X obj 14 16 block~ 2048;
#X obj 188 85 tabdump magnitude;
#X obj 188 57 metro 46.4399;
#X obj 188 34 tgl 15 0 empty empty empty 17 7 0 10 -262144 -1 -1 0
1;
#X obj 16 76 inlet~;
#X obj 508 12 inlet;
#X text 549 9 bang to initialize;
#X obj 222 190 sum;
#X obj 188 116 list split 6;
#X obj 222 140 list split 2;
#X text 166 137 discard;
#X obj 256 211 sum;
#X obj 324 251 sum;
#X obj 358 270 sum;
#X obj 392 291 sum;
#X obj 429 312 sum;
#X obj 466 333 sum;
#X obj 222 418 pack f f f f f f f f;
#X obj 222 549 sendOSC;
#X obj 222 485 list trim;
#X obj 222 466 list prepend send;
#X msg 247 526 connect localhost 8666;
#X obj 222 447 list prepend /fft;
#X obj 117 276 list split 2;
#X obj 127 286 list split 2;
#X obj 120 334 list split 2;
#X obj 256 163 list split 2;
#X obj 290 186 list split 2;
#X obj 324 212 list split 2;
#X obj 358 233 list split 2;
#X obj 391 256 list split 2;
#X obj 429 280 list split 2;
#X obj 466 303 list split 2;
#X obj 290 230 sum;
#X connect 0 0 1 0;
#X connect 0 0 1 1;
#X connect 0 1 2 0;
#X connect 0 1 2 1;
#X connect 1 0 3 0;
#X connect 2 0 3 1;
#X connect 3 0 4 0;
#X connect 7 0 14 0;
#X connect 8 0 7 0;
#X connect 9 0 8 0;
#X connect 10 0 0 0;
#X connect 11 0 9 0;
#X connect 11 0 27 0;
#X connect 13 0 23 0;
#X connect 14 1 15 0;
#X connect 15 0 13 0;
#X connect 15 1 32 0;
#X connect 17 0 23 1;
#X connect 18 0 23 3;
#X connect 19 0 23 4;
#X connect 20 0 23 5;
#X connect 21 0 23 6;
#X connect 22 0 23 7;
#X connect 23 0 28 0;
#X connect 25 0 24 0;
#X connect 26 0 25 0;
#X connect 27 0 24 0;
#X connect 28 0 26 0;
#X connect 32 0 17 0;
#X connect 32 1 33 0;
#X connect 33 0 39 0;
#X connect 33 1 34 0;
#X connect 34 0 18 0;
#X connect 34 1 35 0;
#X connect 35 0 19 0;
#X connect 35 1 36 0;
#X connect 36 0 20 0;
#X connect 36 1 37 0;
#X connect 37 0 21 0;
#X connect 37 1 38 0;
#X connect 38 0 22 0;
#X connect 39 0 23 2;
