#N canvas 674 314 450 300 10;
#X obj 48 28 osc~ 200;
#X obj 49 61 dac~;
#X obj -56 27 loadbang;
#X msg -59 105 \; pd dsp 1;
#X obj -56 61 delay 100;
#X connect 0 0 1 0;
#X connect 0 0 1 1;
#X connect 2 0 4 0;
#X connect 4 0 3 0;
