#N canvas 674 314 450 300 10;
#X obj 32 80 dac~;
#X obj -56 27 loadbang;
#X msg -59 105 \; pd dsp 1;
#X obj -56 61 delay 100;
#X obj 34 46 adc~;
#X connect 1 0 3 0;
#X connect 3 0 2 0;
#X connect 4 0 0 0;
#X connect 4 1 0 1;
