#N canvas 206 332 574 394 10;
#X obj 161 40 adc~;
#X obj 160 91 ave~;
#X obj 212 116 bng 15 250 50 0 empty empty empty 17 7 0 10 -262144
-1 -1;
#X text 235 113 click to start/stop;
#X obj 246 18 loadbang;
#X msg 246 68 \; pd dsp 1;
#X obj 246 42 delay 100;
#X obj 159 138 sendFFT3;
#X obj 104 191 vu 15 120 empty empty -1 -8 0 10 -66577 -1 1 0;
#X obj 103 139 env~;
#X obj 103 163 - 100;
#X connect 0 0 1 0;
#X connect 0 1 1 1;
#X connect 1 0 7 0;
#X connect 1 0 9 0;
#X connect 2 0 7 1;
#X connect 4 0 6 0;
#X connect 6 0 5 0;
#X connect 6 0 2 0;
#X connect 9 0 10 0;
#X connect 10 0 8 0;
